<svg width="589" height="585" viewBox="0 0 589 585" fill="none" xmlns="http://www.w3.org/2000/svg">
<g clip-path="url(#clip0_0_283)">
<path d="M31.2554 255.716L30.6151 259.588L3.4993 255.106L4.13959 251.234L8.01115 251.874L8.33874 249.939L10.2745 250.266L10.6021 248.33L12.5379 248.658L13.1782 244.786L11.2424 244.459L11.57 242.523L9.63422 242.195L9.96182 240.26L6.09026 239.619L6.73056 235.748L33.8463 240.23L33.206 244.101L15.7691 241.213L15.4416 243.148L17.3773 243.461L17.0497 245.397L20.9213 246.037L20.281 249.909L16.4094 249.269L16.0819 251.204L14.1461 250.877L13.8185 252.812L31.2554 255.701V255.716Z" fill="white"/>
<path d="M12.1507 221.155L10.2596 220.634L13.4164 209.287L15.3075 209.808L15.8287 207.917L17.7198 208.439L18.241 206.547L37.152 211.819L36.6309 213.71L38.522 214.231L38.0008 216.122L39.8919 216.643L36.7351 227.99L34.844 227.469L34.3228 229.36L32.4317 228.839L31.9105 230.73L12.9995 225.458L13.5207 223.567L11.6295 223.046L12.1507 221.155ZM16.6775 212.221L14.563 219.785L16.4541 220.306L15.9329 222.197L31.0618 226.411L31.5829 224.52L33.474 225.042L35.5885 217.477L33.6974 216.956L34.2186 215.065L19.0897 210.851L18.5686 212.742L16.6775 212.221Z" fill="white"/>
<path d="M42.2595 197.762L45.1632 190.466L43.3465 189.736L44.0762 187.919L42.2595 187.19L43.7188 183.541L47.367 185.001L46.6373 186.817L48.454 187.547L47.7243 189.364L49.541 190.093L45.1781 201.038L43.3614 200.308L42.6318 202.125L40.8151 201.395L40.0855 203.212L21.8445 195.945L22.5741 194.129L20.7575 193.399L21.4871 191.582L19.6705 190.853L24.0334 179.908L25.8501 180.638L26.5797 178.821L28.3964 179.551L29.126 177.734L32.7742 179.193L31.3149 182.842L29.4983 182.112L28.7686 183.929L26.952 183.199L24.0483 190.495L25.865 191.225L25.1353 193.042L39.7281 198.864L40.4577 197.047L42.2744 197.777L42.2595 197.762Z" fill="white"/>
<path d="M46.0566 169.619L56.4651 175.128L54.6336 178.598L30.347 165.732L32.1786 162.263L42.5871 167.772L48.0966 157.364L37.6881 151.854L39.5196 148.385L63.8062 161.25L61.9746 164.72L51.5661 159.21L46.0566 169.619Z" fill="white"/>
<path d="M70.4474 150.603L68.2436 153.85L51.9831 142.86L53.085 141.237L51.4619 140.135L52.5638 138.512L50.9407 137.41L52.0426 135.787L50.4196 134.685L51.5215 133.062L49.8984 131.96L52.1022 128.714L53.7253 129.816L54.8272 128.193L56.4502 129.295L57.5521 127.672L59.1752 128.774L60.2771 127.151L61.9002 128.253L63.0021 126.63L79.2626 137.619L77.0588 140.88L70.5516 136.487L63.9551 146.24L70.4623 150.633L70.4474 150.603ZM60.6941 144.022L67.2906 134.268L62.4065 130.978L61.3046 132.601L59.6815 131.499L58.5796 133.122L56.9565 132.02L54.7527 135.281L56.3758 136.383L55.2739 138.006L56.897 139.108L55.7951 140.731L60.6792 144.022H60.6941Z" fill="white"/>
<path d="M84.4743 130.695L63.4637 112.975L73.5893 100.973L75.0933 102.239L76.359 100.735L77.8629 102.001L79.1286 100.497L94.1383 113.154L92.8726 114.658L94.3766 115.923L93.1109 117.427L94.6148 118.693L84.4892 130.695H84.4743ZM68.9881 112.498L83.9978 125.155L90.3263 117.651L88.8224 116.385L90.0881 114.881L78.0863 104.755L76.8206 106.259L75.3166 104.994L68.9881 112.498Z" fill="white"/>
<path d="M99.5436 80.1412L100.958 78.7861L103.668 81.6153L100.839 84.3254L99.4841 82.9108L98.0695 84.2659L96.7144 82.8512L91.0411 88.2863L92.3961 89.7009L90.9815 91.056L93.6916 93.9001L95.1062 92.545L96.4613 93.9596L103.549 87.1695L104.904 88.5841L106.319 87.2291L107.674 88.6437L109.088 87.2886L114.524 92.962L113.109 94.317L114.464 95.7316L113.049 97.0867L114.404 98.5013L105.902 106.646L104.547 105.232L103.132 106.587L101.777 105.172L100.363 106.527L97.6525 103.698L100.482 100.988L101.837 102.403L103.251 101.048L104.606 102.462L110.28 97.0271L108.925 95.6125L110.339 94.2574L107.629 91.4282L106.215 92.7833L104.86 91.3687L97.7716 98.1588L96.4166 96.7442L95.002 98.0992L93.6469 96.6846L92.2323 98.0396L86.7973 92.3663L88.2119 91.0113L86.8568 89.5967L88.2714 88.2416L86.9164 86.827L95.4189 78.6819L96.774 80.0965L98.1886 78.7414L99.5436 80.1561V80.1412Z" fill="white"/>
<path d="M149.189 43.957L150.857 42.9296L152.912 46.28L149.561 48.3349L148.534 46.6671L146.866 47.6946L145.838 46.0268L139.138 50.1366L140.165 51.8044L138.497 52.8318L146.702 66.2185L148.37 65.191L149.397 66.8588L156.098 62.749L155.071 61.0812L156.738 60.0538L153.656 55.0356L148.638 58.118L146.583 54.7676L154.952 49.6303L161.116 59.6666L159.448 60.6941L160.476 62.3618L158.808 63.3893L159.836 65.057L149.799 71.2217L148.772 69.554L147.104 70.5814L146.077 68.9137L144.409 69.9411L134.149 53.2041L135.817 52.1766L134.79 50.5089L136.457 49.4814L135.43 47.8137L145.466 41.649L146.494 43.3167L148.161 42.2893L149.189 43.957Z" fill="white"/>
<path d="M171.033 45.729L169.261 46.5629L174.309 57.2096L170.765 58.8923L158.987 34.0548L173.178 27.3242L174.011 29.0962L175.783 28.2623L176.617 30.0343L178.389 29.2004L181.755 36.2884L179.983 37.1222L180.816 38.8942L179.044 39.7281L179.878 41.5001L176.334 43.1827L177.168 44.9547L178.94 44.1208L179.789 45.8928L181.561 45.0589L182.395 46.8309L184.167 45.997L185.001 47.769L186.773 46.9351L188.455 50.4791L184.911 52.1617L184.078 50.3897L182.306 51.2385L181.472 49.4665L179.7 50.3004L178.851 48.5284L177.079 49.3623L176.245 47.5903L174.473 48.4242L173.639 46.6522L171.867 47.501L171.018 45.729H171.033ZM164.213 35.931L167.579 43.0189L176.454 38.8049L175.62 37.0329L177.392 36.199L175.709 32.6551L173.937 33.4889L173.103 31.7169L164.228 35.931H164.213Z" fill="white"/>
<path d="M191.806 21.8147L191.165 19.9534L202.289 16.0818L202.929 17.9283L204.79 17.288L205.431 19.1493L207.292 18.509L213.754 37.0478L211.893 37.6881L212.533 39.5494L210.672 40.1897L211.312 42.051L200.189 45.9226L199.549 44.0613L197.688 44.7016L197.047 42.8402L195.186 43.4805L188.723 24.9418L190.585 24.3015L189.944 22.4401L191.791 21.7998L191.806 21.8147ZM201.723 20.4448L194.307 23.0209L194.948 24.8673L193.101 25.5076L198.268 40.3386L200.115 39.6983L200.755 41.5597L208.17 38.9836L207.53 37.1223L209.392 36.482L204.224 21.6509L202.363 22.2912L201.723 20.4299V20.4448Z" fill="white"/>
<path d="M217.164 11.57L220.991 10.6914L225.86 31.7318L229.687 30.8533L227.469 21.2935L231.296 20.415L233.514 29.9747L237.341 29.0962L232.472 8.05579L236.299 7.17725L241.6 30.1236L239.694 30.5704L240.141 32.4764L238.235 32.9231L238.681 34.8291L234.854 35.7076L234.408 33.8016L230.581 34.6802L231.028 36.5862L227.201 37.4647L226.754 35.5587L224.848 36.0054L224.401 34.0994L222.495 34.5462L217.194 11.5998L217.164 11.57Z" fill="white"/>
<path d="M284.991 27.4731L285.021 29.4387L281.09 29.4983L281.03 25.5671L282.996 25.5374L282.966 23.5718L284.932 23.542L284.902 21.5765L286.867 21.5467L286.837 19.5811L288.803 19.5513L288.773 17.5858L290.739 17.556L290.709 15.5904L292.675 15.5607L292.645 13.5951L290.679 13.6249L290.649 11.6593L288.684 11.6891L288.654 9.72355L286.689 9.75333L286.659 7.78777L284.693 7.81756L284.663 5.852L282.698 5.88178L282.668 3.91622L280.703 3.946L280.643 0.0148846L284.574 -0.0446777L284.604 1.92088L286.569 1.8911L286.599 3.85666L288.565 3.82688L288.595 5.79244L290.56 5.76265L290.59 7.72821L292.555 7.69843L292.585 9.66399L294.551 9.63421L294.581 11.5998L296.546 11.57L296.636 17.4518L294.67 17.4816L294.7 19.4471L292.734 19.4769L292.764 21.4424L290.798 21.4722L290.828 23.4378L288.863 23.4676L288.892 25.4331L286.927 25.4629L286.957 27.4285L284.991 27.4583V27.4731Z" fill="white"/>
<path d="M313.432 28.1581L313.253 30.1087L309.352 29.7513L309.709 25.8351L311.66 26.0138L311.839 24.0631L313.789 24.2418L313.968 22.2912L315.919 22.4698L316.098 20.5192L318.048 20.6979L318.227 18.7472L320.178 18.9259L320.356 16.9752L322.307 17.1539L322.486 15.2032L320.535 15.0245L320.714 13.0739L318.763 12.8952L318.942 10.9445L316.991 10.7658L317.17 8.81517L315.219 8.63648L315.398 6.68581L313.447 6.50713L313.626 4.55646L311.675 4.37777L312.032 0.461548L315.934 0.818922L315.755 2.76959L317.706 2.94828L317.527 4.89894L319.478 5.07763L319.299 7.0283L321.25 7.20699L321.071 9.15765L323.022 9.33634L322.843 11.287L324.794 11.4657L324.615 13.4164L326.566 13.595L326.03 19.4619L324.079 19.2833L323.9 21.2339L321.95 21.0552L321.771 23.0059L319.82 22.8272L319.641 24.7779L317.691 24.5992L317.512 26.5499L315.561 26.3712L315.383 28.3218L313.432 28.1432V28.1581Z" fill="white"/>
<path d="M366.86 39.8621L363.122 38.6709L371.431 12.4783L375.168 13.6696L373.977 17.4071L375.853 18.0027L375.258 19.879L377.134 20.4746L376.538 22.3508L380.276 23.542L380.872 21.6658L382.748 22.2615L383.343 20.3852L385.22 20.9809L386.411 17.2433L390.148 18.4346L381.839 44.6271L378.102 43.4359L383.433 26.5946L381.557 25.999L380.961 27.8752L379.085 27.2796L377.893 31.0171L374.156 29.8259L375.347 26.0883L373.471 25.4927L374.067 23.6165L372.19 23.0209L366.86 39.8621Z" fill="white"/>
<path d="M403.773 25.8798L404.563 24.0781L415.343 28.8282L414.554 30.6299L416.356 31.4191L415.567 33.2209L417.368 34.0101L409.462 51.983L407.66 51.1938L406.871 52.9956L405.069 52.2064L404.28 54.0082L393.499 49.2581L394.288 47.4563L392.486 46.6671L393.275 44.8653L391.474 44.0761L399.381 26.1032L401.182 26.8924L401.972 25.0906L403.773 25.8798ZM411.963 31.6276L404.771 28.4708L403.982 30.2726L402.18 29.4833L395.852 43.8528L397.653 44.642L396.864 46.4437L404.056 49.6005L404.845 47.7988L406.647 48.588L412.976 34.2186L411.174 33.4294L411.963 31.6276Z" fill="white"/>
<path d="M415.596 59.473L429.311 35.6481L442.921 43.4805L441.938 45.1781L443.635 46.1608L442.653 47.8584L444.35 48.8411L434.552 65.8611L432.855 64.8783L431.872 66.5758L430.174 65.5931L429.192 67.2906L415.582 59.4581L415.596 59.473ZM430.755 41.0236L420.957 58.0435L429.46 62.9425L430.442 61.245L432.14 62.2278L439.972 48.6178L438.275 47.635L439.258 45.9375L430.755 41.0385V41.0236Z" fill="white"/>
<path d="M471.868 63.285L469.56 66.4567L456.858 57.2097L452.242 63.5531L461.772 70.4772L459.464 73.6489L449.934 66.7247L445.318 73.0681L458.02 82.3152L455.712 85.4869L439.838 73.9318L456.01 51.715L471.883 63.2701L471.868 63.285Z" fill="white"/>
<path d="M512.415 107.763L513.725 109.222L510.792 111.843L508.171 108.91L509.631 107.599L508.32 106.14L509.779 104.83L504.553 98.9778L503.094 100.288L501.783 98.8288L490.064 109.282L491.375 110.741L489.915 112.052L495.142 117.904L496.601 116.593L497.912 118.053L502.304 114.136L498.388 109.744L501.322 107.123L507.859 114.449L499.073 122.296L497.763 120.837L496.303 122.148L494.993 120.688L493.534 121.999L485.687 113.213L487.146 111.903L485.835 110.444L487.295 109.133L485.984 107.674L500.622 94.5999L501.932 96.0592L503.391 94.7488L504.702 96.2081L506.161 94.8977L514.008 103.683L512.549 104.994L513.86 106.453L512.4 107.763H512.415Z" fill="white"/>
<path d="M514.559 129.608L513.413 128.014L503.838 134.879L501.545 131.692L523.881 115.67L533.039 128.431L531.445 129.578L532.592 131.171L530.999 132.318L532.145 133.911L525.757 138.482L524.61 136.889L523.017 138.036L521.871 136.442L520.277 137.589L517.984 134.402L516.391 135.549L517.537 137.142L515.944 138.289L517.091 139.882L515.497 141.029L516.644 142.622L515.051 143.769L516.197 145.362L513.011 147.655L510.718 144.469L512.311 143.322L511.164 141.729L512.758 140.582L511.611 138.989L513.204 137.842L512.058 136.249L513.651 135.102L512.504 133.509L514.098 132.362L512.951 130.769L514.544 129.623L514.559 129.608ZM523.002 121.15L516.614 125.721L522.332 133.703L523.926 132.556L525.072 134.149L528.259 131.856L527.112 130.263L528.705 129.116L522.987 121.135L523.002 121.15Z" fill="white"/>
<path d="M541.779 145.734L543.492 144.766L549.299 155.011L547.587 155.979L548.555 157.691L546.842 158.659L547.81 160.372L530.731 170.051L529.763 168.338L528.05 169.306L527.082 167.594L525.37 168.562L519.563 158.317L521.275 157.349L520.307 155.636L522.019 154.669L521.052 152.956L538.131 143.277L539.099 144.99L540.811 144.022L541.779 145.734ZM544.906 155.249L541.035 148.415L539.322 149.382L538.354 147.67L524.685 155.413L525.653 157.126L523.94 158.093L527.812 164.928L529.524 163.96L530.492 165.673L544.162 157.93L543.194 156.217L544.906 155.249Z" fill="white"/>
<path d="M556.387 168.815L557.951 172.418L538.131 180.98L539.695 184.584L548.703 180.697L550.252 184.301L541.243 188.187L542.807 191.791L562.626 183.229L564.19 186.832L542.569 196.169L541.794 194.367L539.992 195.141L539.218 193.339L537.416 194.114L535.853 190.51L537.655 189.736L536.106 186.132L534.304 186.907L532.741 183.303L534.543 182.529L533.768 180.727L535.57 179.953L534.796 178.151L556.417 168.815H556.387Z" fill="white"/>
<path d="M569.669 215.78L570.25 217.656L566.498 218.817L565.336 215.065L567.213 214.484L566.632 212.608L568.508 212.027L566.185 204.522L564.309 205.103L563.728 203.227L559.976 204.388L560.556 206.265L558.68 206.845L561.584 216.226L559.708 216.807L560.288 218.683L558.412 219.264L558.993 221.14L551.488 223.463L550.907 221.587L549.031 222.168L548.45 220.291L546.574 220.872L543.09 209.615L544.966 209.034L544.385 207.158L546.261 206.577L545.681 204.701L549.433 203.54L550.595 207.292L548.718 207.873L549.299 209.749L547.423 210.33L549.746 217.834L551.622 217.254L552.203 219.13L555.955 217.969L555.374 216.092L557.251 215.512L554.347 206.13L556.223 205.55L555.642 203.674L557.519 203.093L556.938 201.217L564.443 198.894L565.024 200.77L566.9 200.189L567.481 202.065L569.357 201.485L572.841 212.742L570.965 213.323L571.546 215.199L569.669 215.78Z" fill="white"/>
<path d="M551.369 269.073L551.845 277.963L562.165 277.397L561.48 264.799C561.48 264.799 557.846 264.561 556.64 264.606C551.205 264.77 551.369 269.073 551.369 269.073Z" fill="#68963B"/>
<path d="M566.125 270.354L563.996 274.553L573.228 268.656L572.528 257.726L570.399 261.94L564.547 258.977C563.951 258.679 562.998 258.382 562.194 258.903L552.873 264.978C551.205 266.065 551.309 267.807 551.369 269.058C551.369 269.058 552.233 263.295 558.74 266.601L566.125 270.354Z" fill="#83BF4F"/>
<path d="M568.895 297.246L576.34 292.392L570.697 283.74L560.125 290.635C560.125 290.635 561.733 293.896 562.373 294.923C565.232 299.554 568.88 297.261 568.88 297.261L568.895 297.246Z" fill="#68963B"/>
<path d="M562.626 283.815L567.332 283.562L557.608 278.514L548.495 284.589L553.2 284.336L553.558 290.888C553.588 291.558 553.811 292.526 554.675 292.958L564.607 297.991C566.393 298.899 567.838 297.931 568.895 297.246C568.895 297.246 563.475 299.375 563.073 292.094L562.626 283.815Z" fill="#83BF4F"/>
<path d="M585.29 268.388L577.353 264.368L572.677 273.585L583.935 279.288C583.935 279.288 585.945 276.265 586.526 275.193C589.102 270.398 585.29 268.388 585.29 268.388Z" fill="#68963B"/>
<path d="M576.787 280.524L574.211 276.578L574.702 287.522L584.515 292.377L581.939 288.431L587.434 284.857C587.985 284.5 588.729 283.815 588.67 282.847L588.059 271.724C587.955 269.728 586.392 268.954 585.275 268.388C585.275 268.388 589.831 272.021 583.726 275.997L576.787 280.524Z" fill="#83BF4F"/>
<path d="M552.992 337.391L553.737 333.534L580.733 338.701L579.989 342.558L576.132 341.814L575.76 343.734L573.839 343.362L573.467 345.283L571.546 344.911L570.801 348.767L572.722 349.14L572.35 351.061L574.271 351.433L573.898 353.354L577.755 354.098L577.011 357.955L550.014 352.788L550.758 348.931L568.106 352.252L568.478 350.331L566.557 349.959L566.93 348.038L563.073 347.293L563.817 343.437L567.674 344.181L568.046 342.26L569.967 342.633L570.34 340.712L552.992 337.391Z" fill="white"/>
<path d="M571.233 372.399L573.109 372.98L569.669 384.237L567.793 383.656L567.212 385.532L565.336 384.967L564.755 386.843L545.978 381.11L546.544 379.234L544.668 378.668L545.249 376.792L543.373 376.211L546.812 364.954L548.689 365.534L549.269 363.658L551.146 364.239L551.726 362.363L570.503 368.095L569.937 369.972L571.814 370.552L571.233 372.429V372.399ZM566.483 381.214L568.776 373.709L566.9 373.129L567.48 371.252L552.456 366.666L551.875 368.542L549.999 367.961L547.706 375.466L549.582 376.047L549.001 377.923L564.026 382.51L564.592 380.633L566.468 381.214H566.483Z" fill="white"/>
<path d="M539.278 388.049L564.547 398.859L558.367 413.303L556.566 412.529L555.791 414.331L553.99 413.556L553.215 415.358L535.168 407.63L535.942 405.828L534.14 405.054L534.915 403.252L533.113 402.478L539.293 388.034L539.278 388.049ZM559.38 400.929L541.333 393.201L537.476 402.225L539.278 402.999L538.503 404.801L552.947 410.98L553.722 409.179L555.523 409.953L559.38 400.929Z" fill="white"/>
<path d="M542.062 444.454L538.637 442.534L546.336 428.849L539.486 425.007L533.709 435.282L530.284 433.361L536.061 423.086L529.212 419.245L521.513 432.929L518.088 431.008L527.708 413.899L551.667 427.36L542.047 444.469L542.062 444.454Z" fill="white"/>
<path d="M502.602 489.886L501.292 491.36L498.358 488.754L500.964 485.821L502.438 487.131L503.734 485.657L505.208 486.967L510.42 481.085L508.946 479.775L510.256 478.301L498.507 467.877L497.197 469.352L495.723 468.041L490.511 473.923L491.985 475.233L490.675 476.707L495.082 480.609L498.984 476.201L501.917 478.807L495.41 486.148L486.595 478.331L487.905 476.856L486.431 475.561L487.726 474.087L486.252 472.776L494.07 463.961L495.544 465.271L496.854 463.797L498.329 465.093L499.624 463.619L514.306 476.648L512.996 478.122L514.47 479.418L513.16 480.892L514.634 482.202L506.816 491.017L505.342 489.722L504.032 491.196L502.558 489.886H502.602Z" fill="white"/>
<path d="M481.16 494.561L482.604 493.236L474.667 484.525L477.571 481.874L496.08 502.185L484.465 512.758L483.14 511.313L481.696 512.638L480.371 511.194L478.926 512.519L473.64 506.712L475.084 505.387L473.759 503.942L475.204 502.617L473.878 501.173L476.782 498.522L475.457 497.078L474.012 498.403L472.687 496.959L471.243 498.284L469.917 496.84L468.473 498.165L467.148 496.72L465.703 498.046L463.053 495.142L465.956 492.491L467.282 493.936L468.726 492.611L470.051 494.055L471.496 492.73L472.821 494.174L474.265 492.849L475.591 494.293L477.035 492.968L478.36 494.412L479.805 493.087L481.13 494.531L481.16 494.561ZM490.541 501.947L485.255 496.14L478.003 502.751L479.328 504.195L477.884 505.521L480.534 508.424L481.979 507.099L483.304 508.544L490.556 501.932L490.541 501.947Z" fill="white"/>
<path d="M468.324 523.479L469.486 525.057L459.985 532.026L458.824 530.448L457.245 531.609L456.084 530.031L454.506 531.192L442.906 515.363L444.484 514.202L443.323 512.624L444.901 511.462L443.74 509.884L453.24 502.915L454.401 504.493L455.98 503.332L457.141 504.91L458.72 503.749L470.319 519.577L468.741 520.739L469.902 522.317L468.324 523.479ZM459.241 527.693L465.569 523.047L464.408 521.469L465.986 520.307L456.709 507.635L455.131 508.797L453.969 507.218L447.641 511.864L448.802 513.443L447.224 514.604L456.501 527.276L458.079 526.114L459.241 527.693Z" fill="white"/>
<path d="M447.12 540.677L443.725 542.643L432.899 523.955L429.504 525.921L434.433 534.409L431.038 536.374L426.109 527.886L422.714 529.852L433.54 548.54L430.145 550.505L418.321 530.12L420.019 529.137L419.036 527.44L420.734 526.457L419.751 524.759L423.146 522.794L424.129 524.491L427.524 522.526L426.541 520.828L429.936 518.863L430.919 520.56L432.616 519.577L433.599 521.275L435.297 520.292L447.105 540.677H447.12Z" fill="white"/>
<path d="M377.64 545.398L377.045 543.522L380.782 542.33L381.973 546.068L380.112 546.663L380.708 548.54L378.832 549.135L379.427 550.997L377.551 551.592L378.147 553.454L376.285 554.049L376.881 555.925L375.005 556.521L375.6 558.382L373.739 558.978L374.335 560.839L376.211 560.244L376.806 562.12L378.668 561.524L379.263 563.4L381.125 562.805L381.72 564.666L383.597 564.071L384.192 565.947L386.054 565.351L386.649 567.212L388.51 566.617L389.702 570.354L385.964 571.546L385.369 569.684L383.507 570.28L382.912 568.404L381.035 568.999L380.44 567.123L378.564 567.719L377.968 565.857L376.107 566.453L375.511 564.577L373.65 565.172L373.054 563.311L371.178 563.907L369.376 558.293L371.237 557.697L370.642 555.836L372.518 555.24L371.922 553.364L373.799 552.769L373.203 550.892L375.064 550.297L374.469 548.435L376.345 547.84L375.749 545.978L377.611 545.383L377.64 545.398Z" fill="white"/>
<path d="M350.212 553.022L349.825 551.101L353.666 550.312L354.456 554.153L352.535 554.555L352.922 556.476L351.001 556.863L351.388 558.784L349.467 559.172L349.854 561.092L347.934 561.48L348.321 563.4L346.4 563.788L346.787 565.709L344.866 566.111L345.253 568.031L347.174 567.644L347.561 569.565L349.482 569.178L349.869 571.099L351.79 570.712L352.192 572.633L354.113 572.245L354.515 574.166L356.436 573.779L356.838 575.7L358.759 575.313L359.548 579.155L355.706 579.944L355.319 578.023L353.398 578.425L353.011 576.504L351.09 576.906L350.703 574.985L348.782 575.387L348.395 573.466L346.474 573.869L346.072 571.948L344.151 572.35L343.749 570.429L341.828 570.831L340.652 565.053L342.573 564.666L342.186 562.745L344.107 562.358L343.72 560.437L345.64 560.035L345.253 558.114L347.174 557.712L346.787 555.791L348.708 555.389L348.321 553.468L350.242 553.081L350.212 553.022Z" fill="white"/>
<path d="M295.727 557.355L299.658 557.414L299.212 584.888L295.28 584.828L295.34 580.897L293.374 580.867L293.404 578.902L291.439 578.872L291.468 576.906L287.537 576.847L287.508 578.812L285.542 578.782L285.512 580.748L283.547 580.718L283.487 584.649L279.556 584.59L280.003 557.117L283.934 557.176L283.651 574.836L285.616 574.866L285.646 572.901L287.612 572.93L287.671 568.999L291.602 569.059L291.543 572.99L293.508 573.02L293.479 574.985L295.444 575.015L295.727 557.355Z" fill="white"/>
<path d="M264.472 581.507L264.248 583.458L252.544 582.088L252.768 580.138L250.817 579.914L251.041 577.964L249.09 577.74L251.368 558.248L253.319 558.472L253.542 556.521L255.493 556.744L255.716 554.794L267.42 556.164L267.197 558.114L269.147 558.338L268.924 560.288L270.875 560.512L268.597 580.004L266.646 579.78L266.422 581.731L264.472 581.507ZM254.957 578.41L262.759 579.319L262.983 577.368L264.933 577.591L266.765 561.986L264.814 561.763L265.038 559.812L257.235 558.904L257.012 560.854L255.061 560.631L253.229 576.236L255.18 576.46L254.957 578.41Z" fill="white"/>
<path d="M236.716 555.389L229.062 553.647L228.63 555.568L226.709 555.136L226.277 557.057L222.451 556.193L223.329 552.367L225.25 552.798L225.682 550.877L227.603 551.309L228.035 549.388L239.515 552.009L239.083 553.93L241.004 554.362L240.572 556.283L242.493 556.715L238.13 575.849L236.209 575.417L235.778 577.338L233.857 576.906L233.425 578.827L221.944 576.206L222.376 574.285L220.455 573.854L220.887 571.933L218.966 571.501L219.845 567.674L223.672 568.553L223.24 570.473L225.161 570.905L224.729 572.826L232.383 574.568L232.814 572.648L234.735 573.079L238.22 557.772L236.299 557.34L236.731 555.419L236.716 555.389Z" fill="white"/>
<path d="M208.305 555.985L212.146 544.847L215.854 546.127L206.905 572.111L203.197 570.831L207.039 559.693L195.901 555.851L192.059 566.989L188.351 565.709L197.3 539.724L201.008 541.005L197.166 552.143L208.305 555.985Z" fill="white"/>
<path d="M185.775 534.825L189.334 536.493L180.98 554.258L179.208 553.424L178.374 555.196L176.602 554.362L175.769 556.134L173.997 555.3L173.163 557.072L171.391 556.238L170.557 558.01L166.998 556.342L167.832 554.57L166.06 553.737L166.894 551.965L165.122 551.131L165.956 549.359L164.184 548.525L165.018 546.753L163.246 545.919L171.599 528.154L175.158 529.822L171.823 536.925L182.484 541.943L185.82 534.84L185.775 534.825ZM180.772 545.487L170.11 540.469L167.609 545.8L169.381 546.634L168.547 548.406L170.319 549.24L169.485 551.012L173.044 552.679L173.877 550.907L175.649 551.741L176.483 549.969L178.255 550.803L180.757 545.472L180.772 545.487Z" fill="white"/>
<path d="M163.916 524.045L149.621 547.512L136.204 539.337L137.232 537.655L135.549 536.627L136.577 534.945L134.894 533.917L145.109 517.15L146.791 518.178L147.819 516.495L149.502 517.523L150.529 515.84L163.945 524.015L163.916 524.045ZM148.31 542.122L158.525 525.355L150.142 520.248L149.114 521.93L147.432 520.903L139.257 534.319L140.939 535.347L139.912 537.029L148.295 542.137L148.31 542.122Z" fill="white"/>
<path d="M111.679 516.912L110.116 515.721L112.498 512.609L115.611 514.991L114.419 516.555L115.983 517.746L114.792 519.309L121.031 524.089L122.222 522.526L123.786 523.717L126.168 520.605L124.604 519.414L125.796 517.85L118.008 511.879L119.199 510.315L117.636 509.124L118.827 507.561L117.263 506.369L122.043 500.13L123.607 501.322L124.798 499.758L126.362 500.949L127.553 499.386L136.904 506.548L135.713 508.112L137.276 509.303L136.085 510.866L137.649 512.058L135.266 515.17L132.154 512.787L133.345 511.224L131.782 510.033L132.973 508.469L126.734 503.689L125.543 505.253L123.979 504.061L121.597 507.174L123.16 508.365L121.969 509.928L129.757 515.899L128.565 517.463L130.129 518.654L128.938 520.218L130.501 521.409L125.721 527.648L124.158 526.457L122.967 528.02L121.403 526.829L120.212 528.393L110.86 521.23L112.052 519.667L110.488 518.476L111.679 516.912Z" fill="white"/>
<path d="M68.318 473.372L67.0523 471.883L70.0453 469.337L72.5916 472.33L71.1026 473.595L72.3683 475.084L70.8792 476.35L75.9569 482.336L77.446 481.07L78.7117 482.559L90.6837 472.389L89.418 470.9L90.9071 469.634L85.8294 463.648L84.3403 464.914L83.0746 463.425L78.5925 467.237L82.4045 471.719L79.4115 474.265L73.0532 466.79L82.0323 459.166L83.298 460.655L84.787 459.39L86.0527 460.879L87.5418 459.613L95.1658 468.592L93.6767 469.858L94.9424 471.347L93.4534 472.613L94.7191 474.102L79.754 486.818L78.4883 485.329L76.9993 486.595L75.7336 485.106L74.2445 486.371L66.6205 477.392L68.1096 476.127L66.8439 474.638L68.3329 473.372H68.318Z" fill="white"/>
<path d="M66.7248 451.513L67.8267 453.136L77.5651 446.509L79.7689 449.755L57.0459 465.212L48.2158 452.227L49.8388 451.125L48.7369 449.502L50.36 448.4L49.2581 446.777L55.7504 442.355L56.8523 443.978L58.4754 442.876L59.5773 444.499L61.2004 443.397L63.4042 446.643L65.0272 445.541L63.9253 443.918L65.5484 442.816L64.4465 441.193L66.0696 440.091L64.9677 438.468L66.5908 437.366L65.4888 435.743L68.735 433.54L70.9388 436.786L69.3157 437.888L70.4176 439.511L68.7946 440.613L69.8965 442.236L68.2734 443.338L69.3753 444.961L67.7522 446.063L68.8541 447.686L67.231 448.788L68.3329 450.411L66.7099 451.513H66.7248ZM58.0882 459.762L64.5805 455.339L59.0561 447.224L57.433 448.326L56.3311 446.703L53.085 448.907L54.1869 450.53L52.5638 451.632L58.0882 459.747V459.762Z" fill="white"/>
<path d="M39.8919 434.686L38.1646 435.609L32.6104 425.216L34.3377 424.293L33.4145 422.565L35.1418 421.642L34.2186 419.915L51.5364 410.668L52.4596 412.395L54.1869 411.472L55.1101 413.199L56.8374 412.276L62.3916 422.669L60.6643 423.593L61.5875 425.32L59.8602 426.243L60.7834 427.971L43.4657 437.218L42.5424 435.49L40.8151 436.413L39.8919 434.686ZM37.0031 425.097L40.696 432.021L42.4233 431.098L43.3465 432.825L57.1948 425.424L56.2716 423.697L57.9989 422.774L54.306 415.85L52.5787 416.773L51.6555 415.046L37.8072 422.446L38.7304 424.173L37.0031 425.097Z" fill="white"/>
<path d="M25.8501 411.248L24.3908 407.6L44.4186 399.529L42.9445 395.881L33.8463 399.544L32.3721 395.896L41.4703 392.233L39.9961 388.585L19.9683 396.656L18.509 393.007L40.3535 384.207L41.0831 386.024L42.8998 385.294L43.6294 387.111L45.4461 386.381L46.9054 390.029L45.0887 390.759L46.548 394.407L48.3646 393.677L49.8239 397.326L48.0073 398.055L48.7369 399.872L46.9203 400.602L47.6499 402.418L25.8054 411.219L25.8501 411.248Z" fill="white"/>
<path d="M31.0767 341.799L33.0125 341.471L33.6676 345.343L29.7961 345.998L29.4685 344.062L27.5327 344.39L27.2051 342.454L25.2693 342.781L24.9418 340.846L23.006 341.173L22.6784 339.237L20.7426 339.565L20.415 337.629L18.4792 337.957L18.1516 336.021L16.2159 336.349L16.5435 338.284L14.6077 338.612L14.9353 340.548L12.9995 340.875L13.3271 342.811L11.3913 343.139L11.7189 345.075L9.78313 345.402L10.1107 347.338L8.17495 347.666L8.50254 349.601L4.63099 350.257L3.9758 346.385L5.91158 346.057L5.58398 344.122L7.51976 343.794L7.19217 341.858L9.12794 341.531L8.80035 339.595L10.7361 339.267L10.4085 337.331L12.3443 337.004L12.0167 335.068L13.9525 334.741L13.6249 332.805L19.4322 331.822L19.7598 333.758L21.6956 333.43L22.0232 335.366L23.959 335.038L24.2866 336.974L26.2223 336.647L26.5499 338.582L28.4857 338.255L28.8133 340.19L30.7491 339.863L31.0767 341.799Z" fill="white"/>
<path d="M27.4285 313.566L29.394 313.447L29.6323 317.363L25.716 317.601L25.5969 315.636L23.6314 315.755L23.5122 313.789L21.5467 313.909L21.4276 311.943L19.462 312.062L19.3429 310.097L17.3773 310.216L17.2582 308.25L15.2926 308.369L15.1735 306.404L13.2079 306.523L13.3271 308.488L11.3615 308.608L11.4806 310.573L9.51508 310.692L9.63421 312.658L7.66865 312.777L7.78777 314.742L5.82221 314.862L5.94134 316.827L3.97578 316.946L4.09491 318.912L0.178679 319.15L-0.0595703 315.234L1.90599 315.115L1.78686 313.149L3.75242 313.03L3.6333 311.065L5.59886 310.945L5.47973 308.98L7.44529 308.861L7.32616 306.895L9.29172 306.776L9.1726 304.81L11.1382 304.691L11.019 302.726L16.9008 302.368L17.0199 304.334L18.9855 304.215L19.1046 306.18L21.0702 306.061L21.1893 308.027L23.1549 307.908L23.274 309.873L25.2395 309.754L25.3587 311.72L27.3242 311.601L27.4434 313.566H27.4285Z" fill="white"/>
</g>
<defs>
<clipPath id="clip0_0_283">
<rect width="588.67" height="584.902" fill="white"/>
</clipPath>
</defs>
</svg>
