<svg width="127" height="19" viewBox="0 0 127 19" fill="none" xmlns="http://www.w3.org/2000/svg">
<path d="M115.789 1.56152H121.394V2.963V4.36449H122.796H124.197V5.76597V7.16745H125.599H127V9.97041V12.7734H125.599H124.197V14.1749V15.5763H122.796H121.394V16.9778V18.3793H115.789H110.183V9.97041V1.56152H115.789ZM117.19 4.36449H115.789V9.97041V15.5763H117.19H118.592V14.1749V12.7734H119.993H121.394V9.97041V7.16745H119.993H118.592V5.76597V4.36449H117.19Z" fill="#DFF300"/>
<path d="M96.1677 1.56152H98.9706V2.963V4.36449H100.372H101.774V5.76597V7.16745H103.175H104.577V12.7734V18.3793H101.774H98.9706V16.9778V15.5763H96.1677H93.3647V16.9778V18.3793H90.5618H87.7588V12.7734V7.16745H89.1603H90.5618V5.76597V4.36449H91.9632H93.3647V2.963V1.56152H96.1677ZM96.1677 7.16745H93.3647V9.97041V12.7734H96.1677H98.9706V9.97041V7.16745H96.1677Z" fill="#DFF300"/>
<path d="M68.1379 1.56152H70.9409V4.36449V7.16745H73.7438H76.5468V4.36449V1.56152H79.3498H82.1527V9.97041V18.3793H79.3498H76.5468V14.1749V9.97041H73.7438H70.9409V14.1749V18.3793H68.1379H65.335V9.97041V1.56152H68.1379Z" fill="#DFF300"/>
<path d="M51.32 1.56152H56.9259V2.963V4.36449H58.3274H59.7289V5.76597V7.16745H56.9259H54.123V5.76597V4.36449H51.32H48.5171V9.97041V15.5763H51.32H54.123V14.1749V12.7734H56.9259H59.7289V14.1749V15.5763H58.3274H56.9259V16.9778V18.3793H51.32H45.7141V16.9778V15.5763H44.3126H42.9111V9.97041V4.36449H44.3126H45.7141V2.963V1.56152H51.32Z" fill="#DFF300"/>
<path d="M9.61221 11.3289L12.8813 1.18213H18.1525V18.9096H14.6127V10.0759L16.0272 5.03647L15.0198 4.6413L10.4228 18.9092H7.72978L3.13275 4.6413L2.12538 5.03647L3.53986 10.0759V18.9096H0V1.18213H5.2712L8.54033 11.3289V14.306H9.61221V11.3289Z" fill="#DFFE00"/>
<ellipse cx="29.8988" cy="9.45468" rx="8.54237" ry="9.45468" fill="#DFFE00"/>
</svg>
